# xmcd
#
# Track frame offsets:
#	225
#	14295
#	23462
#	35838
#	45099
#	55719
#	66434
#	76247
#	89924
#	102291
#	116248
#	125764
#	135602
#	145701
#	156615
#	170594
#	184601
#	195868
#	204464
#	223251
#	239496
#	260377
#	265530
#	274536
#	298838
#	308591
#	318275
#	327761
#
# Disc length: 4524 seconds
#
# Revision: 0
# Processed by: cddbd v1.5.2PL0 Copyright (c) Steve Scherf et al.
# Submitted via: EasyCDDAExtractor 15.2.5.1
#
DISCID=9711a91c
DTITLE=Various Artist - LIQUID SUNSHINE
DYEAR=1900
DGENRE=
TTITLE0=STEVE GRAY - FINDING MY FEET
TTITLE1=KEITH MANSFIELD - PRETTY COLOURS
TTITLE2=KEITH MANSFIELD - COTE D'AZUR
TTITLE3=DAVID LINDUP - JUST ANOTHER DAY
TTITLE4=JAMES CLARKE - AIRPORT PEOPLE
TTITLE5=KEITH MANSFIELD - CLEAN AIR
TTITLE6=JAMES CLARKE - FOND FAREWELLS
TTITLE7=JOHN CAMERON - LIQUID SUNSHINE
TTITLE8=DAVID GOLD and GORDON REES - LEISURE COMPLEX
TTITLE9=DAVID GOLD and GORDON REES - LIKE SUMMER
TTITLE10=KEITH MANSFIELD - SUMMER SETTING
TTITLE11=ALAN PARKER and ALAN HAWKSHAW - SWEET SUMMER
TTITLE12=JAMES CLARKE - CINE MOBILE
TTITLE13=JOHN CAMERON - SUNNY SPEED
TTITLE14=KEITH MANSFIELD - JE REVIENS
TTITLE15=DAVID GOLD - AMERICAN EXPRESS
TTITLE16=KEITH MANSFIELD - SCENIC JOURNEY
TTITLE17=DICK DOERSCHUK - SCENIC ROUTE
TTITLE18=KEITH MANSFIELD - NICE FEELINGS
TTITLE19=JOHN FIDDY - TASTE FOR LIVING
TTITLE20=KEITH MANSFIELD - LOVE DE LUXE
TTITLE21=ALAN DOWNEY - TRAVEL THEME (A)
TTITLE22=DAVID GOLD - HIGH LIFE
TTITLE23=KEITH MANSFIELD - SUN GODDESS
TTITLE24=DAVID GOLD - NATURAL BLONDE
TTITLE25=DAVID GOLD - DIAMONDS ON VELVET
TTITLE26=NICK INGMAN - LIGHT PREPARATION
TTITLE27=JAMES CLARKE - ENGLISH ROSE
EXTD=
EXTT0=
EXTT1=
EXTT2=
EXTT3=
EXTT4=
EXTT5=
EXTT6=
EXTT7=
EXTT8=
EXTT9=
EXTT10=
EXTT11=
EXTT12=
EXTT13=
EXTT14=
EXTT15=
EXTT16=
EXTT17=
EXTT18=
EXTT19=
EXTT20=
EXTT21=
EXTT22=
EXTT23=
EXTT24=
EXTT25=
EXTT26=
EXTT27=
PLAYORDER=
